<svg xmlns="http://www.w3.org/2000/svg" viewBox="55.674002136230456 27.080001831054688 463.6600036621094 487.1399955749512"> <svg xmlns="http://www.w3.org/2000/svg" xmlns:xlink="http://www.w3.org/1999/xlink" version="1.1" id="Layer_1" x="217.938" y="97.08000183105469" viewBox="0 0 202.7 335.1" xml:space="preserve" height="230" width="139.125" preserveAspectRatio="xMinYMin" enable-background="new 0 0 202.7 335.1" style="overflow: visible;"><path class="st0" d="M45.2,291.2H16c-4.7,0-8.5-3.8-8.5-8.5v-67.5c0-4.7,3.8-8.5,8.5-8.5h29.2V291.2z" style="fill: #FFFFFF; stroke: #000000; stroke-width: 15; stroke-miterlimit: 10;"></path><path class="st0" d="M166.9,327.6h-116c-3.1,0-5.7-2.5-5.7-5.7V176h127.4v145.9C172.5,325.1,170,327.6,166.9,327.6z" style="fill: #FFFFFF; stroke: #000000; stroke-width: 15; stroke-miterlimit: 10;"></path><circle class="st1" cx="82" cy="92.6" r="18.5" style="fill: #FFFFFF; stroke: #000000; stroke-width: 12; stroke-miterlimit: 10;"></circle><circle class="st1" cx="140.8" cy="57.3" r="18.9" style="fill: #FFFFFF; stroke: #000000; stroke-width: 12; stroke-miterlimit: 10;"></circle><circle class="st1" cx="84" cy="24.9" r="18.9" style="fill: #FFFFFF; stroke: #000000; stroke-width: 12; stroke-miterlimit: 10;"></circle><path class="st0" d="M161.4,140.3c-10.4,0-19.7,4.7-25.9,12.1c-6.2-7.4-15.5-12.1-25.9-12.1S90,145,83.8,152.4   c-6.2-7.4-15.5-12.1-25.9-12.1c-18.6,0-33.8,15.1-33.8,33.8c0,18.6,15.1,33.8,33.8,33.8c10.4,0,19.7-4.7,25.9-12.1   c6.2,7.4,15.5,12.1,25.9,12.1s19.7-4.7,25.9-12.1c6.2,7.4,15.5,12.1,25.9,12.1c18.6,0,33.8-15.1,33.8-33.8   C195.2,155.4,180.1,140.3,161.4,140.3z" style="fill: #FFFFFF; stroke: #000000; stroke-width: 15; stroke-miterlimit: 10;"></path><path d="M77,305.6L77,305.6c-4.3,0-7.7-3.4-7.7-7.7V232c0-4.2,3.4-7.7,7.7-7.7h0c4.2,0,7.7,3.4,7.7,7.7v65.9   C84.7,302.2,81.3,305.6,77,305.6z" style=""></path><path d="M110,305.6L110,305.6c-4.3,0-7.7-3.4-7.7-7.7V232c0-4.2,3.4-7.7,7.7-7.7h0c4.2,0,7.7,3.4,7.7,7.7v65.9   C117.6,302.2,114.2,305.6,110,305.6z" style=""></path><path d="M142.9,305.6L142.9,305.6c-4.3,0-7.7-3.4-7.7-7.7V232c0-4.2,3.4-7.7,7.7-7.7h0c4.2,0,7.7,3.4,7.7,7.7v65.9   C150.6,302.2,147.2,305.6,142.9,305.6z" style=""></path></svg> <svg y="426.95999908447266" viewBox="1.0299999713897705 3.619999885559082 203.5500030517578 17.259998321533203" x="185.73099633789062" width="203.5500030517578" height="17.259998321533203" style="overflow: visible;"><g fill="#000" style=""><path d="M8.56 8.51L8.56 8.51Q8.56 7.87 8.30 7.19Q8.05 6.51 7.44 6.04Q6.83 5.57 5.76 5.57L5.76 5.57Q4.19 5.57 3.34 6.91Q2.48 8.25 2.48 10.84L2.48 10.84Q2.48 13.24 3.36 14.58Q4.23 15.93 5.75 15.93L5.75 15.93Q6.54 15.93 7.36 15.59Q8.18 15.26 9.05 14.50L9.05 14.50Q9.30 14.65 9.51 14.90Q9.72 15.16 9.80 15.40L9.80 15.40Q9.32 15.89 8.67 16.28Q8.01 16.68 7.22 16.91Q6.43 17.14 5.54 17.14L5.54 17.14Q4.32 17.14 3.46 16.61Q2.60 16.09 2.06 15.20Q1.52 14.31 1.27 13.18Q1.03 12.05 1.03 10.84L1.03 10.84Q1.03 8.60 1.68 7.19Q2.34 5.77 3.42 5.09Q4.50 4.41 5.77 4.41L5.77 4.41Q7.07 4.41 8.01 4.91Q8.95 5.42 9.45 6.19Q9.95 6.97 9.95 7.79L9.95 7.79Q9.95 8.09 9.81 8.35Q9.66 8.61 9.18 8.61L9.18 8.61Q9.01 8.61 8.88 8.59Q8.76 8.57 8.56 8.51ZM19.08 12.50L19.08 12.50Q19.08 13.84 18.66 14.89Q18.23 15.94 17.40 16.54Q16.57 17.14 15.33 17.14L15.33 17.14Q14.09 17.14 13.26 16.53Q12.43 15.92 12.02 14.87Q11.60 13.82 11.60 12.50L11.60 12.50Q11.60 11.17 12.02 10.13Q12.45 9.08 13.28 8.48Q14.10 7.88 15.33 7.88L15.33 7.88Q16.58 7.88 17.41 8.48Q18.24 9.08 18.66 10.13Q19.08 11.17 19.08 12.50ZM12.98 12.50L12.98 12.50Q12.98 13.39 13.20 14.22Q13.42 15.04 13.94 15.57Q14.45 16.09 15.35 16.09L15.35 16.09Q16.24 16.09 16.75 15.57Q17.26 15.04 17.48 14.22Q17.69 13.39 17.69 12.50L17.69 12.50Q17.69 11.62 17.48 10.79Q17.26 9.96 16.75 9.43Q16.24 8.90 15.35 8.90L15.35 8.90Q14.45 8.90 13.94 9.43Q13.42 9.96 13.20 10.79Q12.98 11.62 12.98 12.50ZM27.85 4.60L27.85 14.43Q27.85 15.00 27.93 15.52Q28.02 16.04 28.35 16.35L28.35 16.35Q28.29 16.54 28.12 16.74Q27.95 16.95 27.74 17.05L27.74 17.05Q27.03 16.79 26.78 16.18Q26.54 15.58 26.54 14.86L26.54 14.86L26.54 3.80L26.65 3.69L27.14 3.69Q27.59 3.69 27.72 3.92Q27.85 4.15 27.85 4.60L27.85 4.60ZM20.93 12.61L20.93 12.61Q20.93 10.97 21.44 9.94Q21.95 8.91 22.73 8.43Q23.50 7.95 24.28 7.95L24.28 7.95Q25.10 7.95 25.82 8.28Q26.54 8.62 27.19 9.13L27.19 9.13L27.12 10.31Q26.60 9.92 25.91 9.51Q25.22 9.10 24.42 9.10L24.42 9.10Q23.88 9.10 23.39 9.46Q22.90 9.82 22.59 10.59Q22.28 11.37 22.28 12.62L22.28 12.62Q22.28 13.82 22.55 14.56Q22.82 15.30 23.27 15.64Q23.71 15.98 24.20 15.98L24.20 15.98Q24.75 15.98 25.31 15.69Q25.87 15.41 26.32 14.88Q26.78 14.36 27.00 13.63L27.00 13.63L27.24 14.89Q27.03 15.43 26.56 15.94Q26.09 16.46 25.43 16.80Q24.77 17.14 23.94 17.14L23.94 17.14Q22.96 17.14 22.28 16.56Q21.61 15.99 21.27 14.97Q20.93 13.95 20.93 12.61ZM32.43 9.32L32.43 16.92Q32.30 16.95 32.13 16.96Q31.96 16.97 31.77 16.97L31.77 16.97Q31.57 16.97 31.40 16.96Q31.23 16.95 31.10 16.92L31.10 16.92L31.10 9.97Q31.10 9.48 30.94 9.29Q30.78 9.10 30.36 9.10L30.36 9.10L30.19 9.10Q30.13 8.84 30.13 8.60L30.13 8.60Q30.13 8.48 30.15 8.37Q30.16 8.25 30.19 8.11L30.19 8.11Q30.49 8.06 30.72 8.05Q30.95 8.04 31.10 8.04L31.10 8.04L31.25 8.04Q31.81 8.04 32.12 8.38Q32.43 8.72 32.43 9.32L32.43 9.32ZM30.55 5.76L30.55 5.76Q30.55 5.59 30.58 5.40Q30.62 5.20 30.68 5.09L30.68 5.09Q30.81 5.00 31.04 4.95Q31.28 4.91 31.48 4.91L31.48 4.91Q31.67 4.91 31.92 4.95Q32.18 5.00 32.28 5.09L32.28 5.09Q32.35 5.20 32.38 5.40Q32.42 5.59 32.42 5.76L32.42 5.76Q32.42 5.92 32.38 6.12Q32.35 6.31 32.28 6.43L32.28 6.43Q32.19 6.51 31.93 6.56Q31.67 6.62 31.48 6.62L31.48 6.62Q31.28 6.62 31.04 6.57Q30.81 6.52 30.68 6.43L30.68 6.43Q30.62 6.31 30.58 6.12Q30.55 5.92 30.55 5.76ZM35.69 8.04L36.18 8.04Q36.63 8.04 36.77 8.28Q36.90 8.51 36.90 8.96L36.90 8.96L36.90 16.92Q36.77 16.95 36.60 16.96Q36.43 16.97 36.24 16.97L36.24 16.97Q36.05 16.97 35.87 16.96Q35.70 16.95 35.58 16.92L35.58 16.92L35.58 8.15L35.69 8.04ZM42.31 10.74L42.31 15.21Q42.31 15.65 42.35 16.05Q42.40 16.44 42.53 16.74L42.53 16.74Q42.38 16.87 42.15 16.95Q41.91 17.03 41.68 17.03L41.68 17.03Q41.30 17.03 41.14 16.81Q40.99 16.60 40.99 16.16L40.99 16.16L40.99 11.16Q40.99 10.09 40.71 9.61Q40.44 9.14 39.66 9.14L39.66 9.14Q39.11 9.14 38.50 9.39Q37.89 9.65 37.36 10.08Q36.84 10.50 36.54 11.03L36.54 11.03L36.54 9.61Q37.13 8.87 38.07 8.40Q39.02 7.93 40.00 7.93L40.00 7.93Q40.85 7.93 41.36 8.31Q41.86 8.69 42.08 9.33Q42.31 9.97 42.31 10.74L42.31 10.74ZM52.16 8.66L52.16 8.66Q51.82 8.96 51.74 9.49Q51.65 10.01 51.65 10.58L51.65 10.58L51.65 16.24Q51.65 17.15 51.57 17.80Q51.48 18.46 51.30 18.93Q51.12 19.40 50.83 19.76L50.83 19.76Q50.46 20.21 49.76 20.55Q49.06 20.88 48.08 20.88L48.08 20.88Q47.26 20.88 46.47 20.70Q45.68 20.51 45.11 20.27L45.11 20.27Q45.12 20.00 45.22 19.70Q45.32 19.40 45.49 19.22L45.49 19.22Q46.04 19.49 46.75 19.65Q47.45 19.80 47.94 19.80L47.94 19.80Q49.01 19.80 49.52 19.40Q50.04 19.00 50.21 18.34Q50.37 17.69 50.37 16.92L50.37 16.92L50.37 10.15Q50.37 9.43 50.60 8.82Q50.83 8.22 51.54 7.96L51.54 7.96Q51.75 8.06 51.92 8.27Q52.09 8.47 52.16 8.66ZM44.71 12.52L44.71 12.52Q44.71 10.89 45.23 9.87Q45.74 8.85 46.51 8.36Q47.29 7.88 48.06 7.88L48.06 7.88Q48.80 7.88 49.35 8.08Q49.90 8.29 50.32 8.62Q50.74 8.95 51.08 9.32L51.08 9.32L50.94 10.51Q50.50 9.91 49.76 9.47Q49.01 9.03 48.24 9.03L48.24 9.03Q47.37 9.03 46.71 9.85Q46.06 10.67 46.06 12.53L46.06 12.53Q46.06 14.33 46.63 15.12Q47.20 15.90 47.97 15.90L47.97 15.90Q48.80 15.90 49.54 15.38Q50.27 14.85 50.66 14.12L50.66 14.12L50.88 15.26Q50.66 15.62 50.22 16.03Q49.78 16.45 49.16 16.76Q48.54 17.06 47.78 17.06L47.78 17.06Q46.77 17.06 46.09 16.50Q45.41 15.93 45.06 14.91Q44.71 13.89 44.71 12.52ZM65.40 8.09L65.40 14.43Q65.40 15.00 65.49 15.52Q65.57 16.04 65.91 16.35L65.91 16.35Q65.84 16.54 65.67 16.74Q65.50 16.95 65.30 17.05L65.30 17.05Q64.58 16.79 64.33 16.18Q64.07 15.58 64.07 14.86L64.07 14.86L64.07 8.09Q64.20 8.06 64.37 8.05Q64.54 8.04 64.73 8.04L64.73 8.04Q64.93 8.04 65.10 8.05Q65.27 8.06 65.40 8.09L65.40 8.09ZM58.66 14.27L58.66 9.79Q58.66 9.36 58.62 8.96Q58.58 8.57 58.46 8.27L58.46 8.27Q58.60 8.15 58.83 8.06Q59.07 7.98 59.29 7.98L59.29 7.98Q59.67 7.98 59.83 8.20Q59.99 8.42 59.99 8.86L59.99 8.86L59.99 13.85Q59.99 14.91 60.26 15.39Q60.53 15.88 61.31 15.88L61.31 15.88Q61.87 15.88 62.47 15.62Q63.08 15.36 63.61 14.94Q64.13 14.51 64.43 13.99L64.43 13.99L64.43 15.39Q63.86 16.13 62.91 16.61Q61.97 17.08 60.98 17.08L60.98 17.08Q60.13 17.08 59.62 16.70Q59.11 16.32 58.89 15.67Q58.66 15.03 58.66 14.27L58.66 14.27ZM68.71 8.04L69.20 8.04Q69.65 8.04 69.79 8.28Q69.92 8.51 69.92 8.96L69.92 8.96L69.92 16.92Q69.80 16.95 69.62 16.96Q69.45 16.97 69.26 16.97L69.26 16.97Q69.07 16.97 68.90 16.96Q68.72 16.95 68.60 16.92L68.60 16.92L68.60 8.15L68.71 8.04ZM75.33 10.74L75.33 15.21Q75.33 15.65 75.38 16.05Q75.42 16.44 75.55 16.74L75.55 16.74Q75.40 16.87 75.17 16.95Q74.93 17.03 74.70 17.03L74.70 17.03Q74.32 17.03 74.16 16.81Q74.01 16.60 74.01 16.16L74.01 16.16L74.01 11.16Q74.01 10.09 73.73 9.61Q73.46 9.14 72.68 9.14L72.68 9.14Q72.14 9.14 71.52 9.39Q70.91 9.65 70.38 10.08Q69.86 10.50 69.56 11.03L69.56 11.03L69.56 9.61Q70.15 8.87 71.09 8.40Q72.04 7.93 73.02 7.93L73.02 7.93Q73.87 7.93 74.38 8.31Q74.88 8.69 75.11 9.33Q75.33 9.97 75.33 10.74L75.33 10.74ZM84.65 4.60L84.65 14.43Q84.65 15.00 84.74 15.52Q84.83 16.04 85.16 16.35L85.16 16.35Q85.10 16.54 84.92 16.74Q84.75 16.95 84.55 17.05L84.55 17.05Q83.84 16.79 83.59 16.18Q83.35 15.58 83.35 14.86L83.35 14.86L83.35 3.80L83.46 3.69L83.94 3.69Q84.39 3.69 84.52 3.92Q84.65 4.15 84.65 4.60L84.65 4.60ZM77.73 12.61L77.73 12.61Q77.73 10.97 78.25 9.94Q78.76 8.91 79.53 8.43Q80.31 7.95 81.09 7.95L81.09 7.95Q81.91 7.95 82.63 8.28Q83.35 8.62 84.00 9.13L84.00 9.13L83.93 10.31Q83.40 9.92 82.71 9.51Q82.03 9.10 81.23 9.10L81.23 9.10Q80.69 9.10 80.19 9.46Q79.70 9.82 79.39 10.59Q79.08 11.37 79.08 12.62L79.08 12.62Q79.08 13.82 79.36 14.56Q79.63 15.30 80.07 15.64Q80.51 15.98 81.01 15.98L81.01 15.98Q81.56 15.98 82.12 15.69Q82.67 15.41 83.13 14.88Q83.58 14.36 83.81 13.63L83.81 13.63L84.05 14.89Q83.84 15.43 83.37 15.94Q82.90 16.46 82.24 16.80Q81.58 17.14 80.75 17.14L80.75 17.14Q79.77 17.14 79.09 16.56Q78.42 15.99 78.08 14.97Q77.73 13.95 77.73 12.61ZM94.19 12.92L88.01 12.92L88.01 11.89L92.93 11.89L92.93 11.64Q92.93 10.89 92.71 10.27Q92.50 9.65 92.03 9.27Q91.57 8.90 90.80 8.90L90.80 8.90Q89.74 8.90 89.18 9.81Q88.61 10.71 88.61 12.19L88.61 12.19L88.61 12.61Q88.61 13.58 88.83 14.34Q89.04 15.10 89.54 15.53Q90.05 15.97 90.93 15.97L90.93 15.97Q91.65 15.97 92.30 15.75Q92.95 15.53 93.54 15.20L93.54 15.20Q93.73 15.37 93.86 15.64Q94.00 15.91 94.02 16.13L94.02 16.13Q93.40 16.57 92.54 16.85Q91.67 17.14 90.75 17.14L90.75 17.14Q89.74 17.14 89.06 16.76Q88.37 16.39 87.97 15.74Q87.56 15.08 87.38 14.25Q87.20 13.41 87.20 12.49L87.20 12.49Q87.20 11.16 87.62 10.12Q88.05 9.07 88.85 8.47Q89.66 7.88 90.80 7.88L90.80 7.88Q91.96 7.88 92.73 8.39Q93.50 8.91 93.89 9.78Q94.28 10.66 94.28 11.72L94.28 11.72Q94.28 12.06 94.26 12.32Q94.24 12.58 94.19 12.92L94.19 12.92ZM101.52 8.04L101.52 8.04Q101.52 8.34 101.45 8.69Q101.39 9.05 101.21 9.31L101.21 9.31Q101.06 9.29 100.90 9.28Q100.74 9.28 100.58 9.28L100.58 9.28Q99.98 9.28 99.55 9.54Q99.12 9.79 98.83 10.18Q98.54 10.57 98.37 10.99Q98.19 11.41 98.11 11.75L98.11 11.75L97.87 11.46Q97.87 10.88 98.03 10.27Q98.19 9.66 98.52 9.14Q98.86 8.61 99.40 8.29Q99.94 7.96 100.69 7.96L100.69 7.96Q100.85 7.96 101.06 7.98Q101.27 7.99 101.52 8.04ZM96.41 8.70L96.41 8.70Q96.47 8.52 96.63 8.30Q96.80 8.08 96.98 7.96L96.98 7.96Q97.70 8.22 98.02 8.86Q98.35 9.50 98.39 10.41L98.39 10.41L98.39 16.92Q98.26 16.95 98.09 16.96Q97.92 16.97 97.73 16.97L97.73 16.97Q97.53 16.97 97.36 16.96Q97.19 16.95 97.07 16.92L97.07 16.92L97.07 10.55Q97.07 9.87 96.86 9.41Q96.65 8.95 96.41 8.70ZM107.51 15.50L107.51 6.21Q107.51 5.76 107.64 5.53Q107.78 5.30 108.23 5.30L108.23 5.30L108.71 5.30L108.82 5.42L108.82 15.15Q108.82 15.47 108.98 15.68Q109.14 15.89 109.53 15.89L109.53 15.89L110.90 15.89Q111.01 16.18 111.01 16.61L111.01 16.61Q111.01 16.68 111.01 16.75Q111.01 16.82 110.99 16.88L110.99 16.88Q110.57 16.94 110.13 16.97Q109.69 16.99 109.16 16.99L109.16 16.99Q108.41 16.99 107.96 16.61Q107.51 16.23 107.51 15.50L107.51 15.50ZM108.37 8.11L111.10 8.07Q111.16 8.33 111.16 8.59L111.16 8.59Q111.16 8.86 111.10 9.10L111.10 9.10L108.38 9.06L106.25 9.10Q106.19 8.84 106.19 8.59L106.19 8.59Q106.19 8.35 106.25 8.07L106.25 8.07L108.37 8.11ZM114.58 4.60L114.58 16.92Q114.33 16.97 113.92 16.97L113.92 16.97Q113.54 16.97 113.27 16.92L113.27 16.92L113.27 3.80L113.38 3.69L113.87 3.69Q114.32 3.69 114.45 3.92Q114.58 4.15 114.58 4.60L114.58 4.60ZM119.99 10.76L119.99 15.21Q119.99 15.65 120.03 16.05Q120.07 16.44 120.20 16.74L120.20 16.74Q120.05 16.87 119.82 16.95Q119.59 17.03 119.36 17.03L119.36 17.03Q118.98 17.03 118.82 16.81Q118.66 16.60 118.66 16.16L118.66 16.16L118.66 11.18Q118.66 10.11 118.39 9.63Q118.12 9.15 117.34 9.15L117.34 9.15Q116.79 9.15 116.18 9.41Q115.57 9.67 115.04 10.09Q114.52 10.52 114.22 11.04L114.22 11.04L114.22 9.63Q114.80 8.89 115.75 8.42Q116.69 7.95 117.68 7.95L117.68 7.95Q118.53 7.95 119.03 8.33Q119.54 8.71 119.76 9.35Q119.99 9.99 119.99 10.76L119.99 10.76ZM129.40 12.92L123.22 12.92L123.22 11.89L128.13 11.89L128.13 11.64Q128.13 10.89 127.92 10.27Q127.71 9.65 127.24 9.27Q126.77 8.90 126.01 8.90L126.01 8.90Q124.95 8.90 124.38 9.81Q123.82 10.71 123.82 12.19L123.82 12.19L123.82 12.61Q123.82 13.58 124.03 14.34Q124.25 15.10 124.75 15.53Q125.25 15.97 126.14 15.97L126.14 15.97Q126.86 15.97 127.51 15.75Q128.16 15.53 128.75 15.20L128.75 15.20Q128.93 15.37 129.07 15.64Q129.20 15.91 129.23 16.13L129.23 16.13Q128.61 16.57 127.75 16.85Q126.88 17.14 125.96 17.14L125.96 17.14Q124.95 17.14 124.26 16.76Q123.58 16.39 123.17 15.74Q122.77 15.08 122.59 14.25Q122.41 13.41 122.41 12.49L122.41 12.49Q122.41 11.16 122.83 10.12Q123.26 9.07 124.06 8.47Q124.87 7.88 126.01 7.88L126.01 7.88Q127.17 7.88 127.94 8.39Q128.71 8.91 129.10 9.78Q129.48 10.66 129.48 11.72L129.48 11.72Q129.48 12.06 129.47 12.32Q129.45 12.58 129.40 12.92L129.40 12.92ZM137.54 9.32L137.54 16.92Q137.41 16.95 137.24 16.96Q137.07 16.97 136.88 16.97L136.88 16.97Q136.68 16.97 136.51 16.96Q136.34 16.95 136.22 16.92L136.22 16.92L136.22 9.97Q136.22 9.48 136.05 9.29Q135.89 9.10 135.47 9.10L135.47 9.10L135.30 9.10Q135.24 8.84 135.24 8.60L135.24 8.60Q135.24 8.48 135.26 8.37Q135.27 8.25 135.30 8.11L135.30 8.11Q135.60 8.06 135.83 8.05Q136.06 8.04 136.21 8.04L136.21 8.04L136.36 8.04Q136.92 8.04 137.23 8.38Q137.54 8.72 137.54 9.32L137.54 9.32ZM135.66 5.76L135.66 5.76Q135.66 5.59 135.69 5.40Q135.73 5.20 135.79 5.09L135.79 5.09Q135.92 5.00 136.15 4.95Q136.39 4.91 136.59 4.91L136.59 4.91Q136.78 4.91 137.03 4.95Q137.29 5.00 137.39 5.09L137.39 5.09Q137.46 5.20 137.49 5.40Q137.53 5.59 137.53 5.76L137.53 5.76Q137.53 5.92 137.49 6.12Q137.46 6.31 137.39 6.43L137.39 6.43Q137.30 6.51 137.04 6.56Q136.78 6.62 136.59 6.62L136.59 6.62Q136.39 6.62 136.15 6.57Q135.92 6.52 135.79 6.43L135.79 6.43Q135.73 6.31 135.69 6.12Q135.66 5.92 135.66 5.76ZM140.80 8.04L141.29 8.04Q141.74 8.04 141.88 8.28Q142.01 8.51 142.01 8.96L142.01 8.96L142.01 16.92Q141.89 16.95 141.71 16.96Q141.54 16.97 141.35 16.97L141.35 16.97Q141.16 16.97 140.99 16.96Q140.81 16.95 140.69 16.92L140.69 16.92L140.69 8.15L140.80 8.04ZM147.42 10.74L147.42 15.21Q147.42 15.65 147.47 16.05Q147.51 16.44 147.64 16.74L147.64 16.74Q147.49 16.87 147.26 16.95Q147.02 17.03 146.79 17.03L146.79 17.03Q146.41 17.03 146.25 16.81Q146.10 16.60 146.10 16.16L146.10 16.16L146.10 11.16Q146.10 10.09 145.82 9.61Q145.55 9.14 144.77 9.14L144.77 9.14Q144.23 9.14 143.61 9.39Q143.00 9.65 142.47 10.08Q141.95 10.50 141.65 11.03L141.65 11.03L141.65 9.61Q142.24 8.87 143.18 8.40Q144.13 7.93 145.11 7.93L145.11 7.93Q145.96 7.93 146.47 8.31Q146.97 8.69 147.20 9.33Q147.42 9.97 147.42 10.74L147.42 10.74ZM149.30 8.07L151.47 8.11L154.70 8.07Q154.74 8.22 154.75 8.33Q154.76 8.44 154.76 8.59L154.76 8.59Q154.76 8.73 154.75 8.85Q154.74 8.97 154.70 9.10L154.70 9.10L151.48 9.06L149.30 9.10Q149.27 8.97 149.26 8.85Q149.24 8.73 149.24 8.59L149.24 8.59Q149.24 8.44 149.26 8.33Q149.27 8.22 149.30 8.07L149.30 8.07ZM150.85 16.92L150.85 8.69Q150.80 8.01 150.73 7.38Q150.66 6.76 150.66 6.24L150.66 6.24Q150.66 5.50 150.95 4.91Q151.25 4.31 151.83 3.96Q152.41 3.62 153.25 3.62L153.25 3.62Q153.73 3.62 154.32 3.73Q154.91 3.85 155.30 4.01L155.30 4.01Q155.30 4.25 155.21 4.50Q155.12 4.75 154.97 4.92L154.97 4.92Q154.58 4.80 154.15 4.72Q153.72 4.63 153.32 4.63L153.32 4.63Q152.67 4.63 152.29 5.07Q151.92 5.50 151.92 6.30L151.92 6.30Q151.92 6.85 151.99 7.45Q152.06 8.06 152.15 8.72L152.15 8.72L152.15 16.92Q151.86 16.97 151.50 16.97L151.50 16.97Q151.14 16.97 150.85 16.92L150.85 16.92ZM158.19 15.89L158.95 15.89Q159.00 16.03 159.03 16.22Q159.07 16.41 159.07 16.61L159.07 16.61Q159.07 16.68 159.06 16.75Q159.06 16.82 159.04 16.88L159.04 16.88Q158.78 16.92 158.40 16.96Q158.01 16.99 157.73 16.99L157.73 16.99Q157.05 16.99 156.63 16.61Q156.21 16.23 156.21 15.50L156.21 15.50L156.21 3.80L156.32 3.69L156.81 3.69Q157.26 3.69 157.39 3.92Q157.52 4.15 157.52 4.60L157.52 4.60L157.52 15.13Q157.52 15.89 158.19 15.89L158.19 15.89ZM167.80 8.09L167.80 14.43Q167.80 15.00 167.88 15.52Q167.97 16.04 168.30 16.35L168.30 16.35Q168.23 16.54 168.06 16.74Q167.90 16.95 167.69 17.05L167.69 17.05Q166.98 16.79 166.72 16.18Q166.46 15.58 166.46 14.86L166.46 14.86L166.46 8.09Q166.59 8.06 166.76 8.05Q166.93 8.04 167.12 8.04L167.12 8.04Q167.32 8.04 167.49 8.05Q167.66 8.06 167.80 8.09L167.80 8.09ZM161.06 14.27L161.06 9.79Q161.06 9.36 161.01 8.96Q160.97 8.57 160.85 8.27L160.85 8.27Q160.99 8.15 161.23 8.06Q161.46 7.98 161.69 7.98L161.69 7.98Q162.06 7.98 162.23 8.20Q162.39 8.42 162.39 8.86L162.39 8.86L162.39 13.85Q162.39 14.91 162.66 15.39Q162.93 15.88 163.70 15.88L163.70 15.88Q164.26 15.88 164.87 15.62Q165.47 15.36 166.00 14.94Q166.53 14.51 166.82 13.99L166.82 13.99L166.82 15.39Q166.25 16.13 165.30 16.61Q164.36 17.08 163.37 17.08L163.37 17.08Q162.52 17.08 162.01 16.70Q161.51 16.32 161.28 15.67Q161.06 15.03 161.06 14.27L161.06 14.27ZM177.28 12.92L171.10 12.92L171.10 11.89L176.01 11.89L176.01 11.64Q176.01 10.89 175.80 10.27Q175.59 9.65 175.12 9.27Q174.65 8.90 173.89 8.90L173.89 8.90Q172.83 8.90 172.26 9.81Q171.70 10.71 171.70 12.19L171.70 12.19L171.70 12.61Q171.70 13.58 171.91 14.34Q172.13 15.10 172.63 15.53Q173.13 15.97 174.02 15.97L174.02 15.97Q174.74 15.97 175.39 15.75Q176.04 15.53 176.63 15.20L176.63 15.20Q176.81 15.37 176.95 15.64Q177.08 15.91 177.11 16.13L177.11 16.13Q176.49 16.57 175.63 16.85Q174.76 17.14 173.84 17.14L173.84 17.14Q172.83 17.14 172.14 16.76Q171.46 16.39 171.05 15.74Q170.65 15.08 170.47 14.25Q170.29 13.41 170.29 12.49L170.29 12.49Q170.29 11.16 170.71 10.12Q171.14 9.07 171.94 8.47Q172.75 7.88 173.89 7.88L173.89 7.88Q175.05 7.88 175.82 8.39Q176.59 8.91 176.98 9.78Q177.36 10.66 177.36 11.72L177.36 11.72Q177.36 12.06 177.35 12.32Q177.33 12.58 177.28 12.92L177.28 12.92ZM180.10 8.04L180.59 8.04Q181.04 8.04 181.18 8.28Q181.31 8.51 181.31 8.96L181.31 8.96L181.31 16.92Q181.19 16.95 181.02 16.96Q180.85 16.97 180.66 16.97L180.66 16.97Q180.46 16.97 180.29 16.96Q180.12 16.95 179.99 16.92L179.99 16.92L179.99 8.15L180.10 8.04ZM186.72 10.74L186.72 15.21Q186.72 15.65 186.77 16.05Q186.81 16.44 186.94 16.74L186.94 16.74Q186.80 16.87 186.56 16.95Q186.33 17.03 186.09 17.03L186.09 17.03Q185.72 17.03 185.56 16.81Q185.40 16.60 185.40 16.16L185.40 16.16L185.40 11.16Q185.40 10.09 185.13 9.61Q184.85 9.14 184.08 9.14L184.08 9.14Q183.53 9.14 182.92 9.39Q182.30 9.65 181.78 10.08Q181.25 10.50 180.95 11.03L180.95 11.03L180.95 9.61Q181.54 8.87 182.48 8.40Q183.43 7.93 184.41 7.93L184.41 7.93Q185.27 7.93 185.77 8.31Q186.27 8.69 186.50 9.33Q186.72 9.97 186.72 10.74L186.72 10.74ZM194.61 11.21L194.61 11.21Q194.64 10.69 194.48 10.17Q194.32 9.64 193.90 9.29Q193.48 8.94 192.73 8.94L192.73 8.94Q191.75 8.94 191.14 9.86Q190.54 10.78 190.54 12.57L190.54 12.57Q190.54 14.30 191.15 15.14Q191.76 15.98 192.83 15.98L192.83 15.98Q193.50 15.98 194.07 15.67Q194.64 15.36 195.14 14.99L195.14 14.99Q195.34 15.11 195.53 15.35Q195.72 15.60 195.78 15.84L195.78 15.84Q195.16 16.42 194.38 16.78Q193.61 17.14 192.65 17.14L192.65 17.14Q191.69 17.14 191.02 16.75Q190.35 16.36 189.94 15.71Q189.52 15.05 189.33 14.23Q189.14 13.42 189.14 12.57L189.14 12.57Q189.14 11.36 189.44 10.47Q189.74 9.58 190.25 9.00Q190.76 8.43 191.41 8.15Q192.06 7.88 192.76 7.88L192.76 7.88Q193.62 7.88 194.22 8.14Q194.81 8.40 195.18 8.80Q195.55 9.20 195.72 9.64Q195.89 10.08 195.89 10.43L195.89 10.43Q195.89 10.77 195.75 11.03Q195.62 11.28 195.17 11.28L195.17 11.28Q195.03 11.28 194.90 11.26Q194.76 11.25 194.61 11.21ZM204.50 12.92L198.32 12.92L198.32 11.89L203.23 11.89L203.23 11.64Q203.23 10.89 203.02 10.27Q202.81 9.65 202.34 9.27Q201.87 8.90 201.11 8.90L201.11 8.90Q200.04 8.90 199.48 9.81Q198.92 10.71 198.92 12.19L198.92 12.19L198.92 12.61Q198.92 13.58 199.13 14.34Q199.34 15.10 199.85 15.53Q200.35 15.97 201.23 15.97L201.23 15.97Q201.95 15.97 202.60 15.75Q203.26 15.53 203.84 15.20L203.84 15.20Q204.03 15.37 204.17 15.64Q204.30 15.91 204.33 16.13L204.33 16.13Q203.71 16.57 202.84 16.85Q201.98 17.14 201.05 17.14L201.05 17.14Q200.04 17.14 199.36 16.76Q198.68 16.39 198.27 15.74Q197.87 15.08 197.69 14.25Q197.51 13.41 197.51 12.49L197.51 12.49Q197.51 11.16 197.93 10.12Q198.35 9.07 199.16 8.47Q199.96 7.88 201.11 7.88L201.11 7.88Q202.27 7.88 203.04 8.39Q203.81 8.91 204.19 9.78Q204.58 10.66 204.58 11.72L204.58 11.72Q204.58 12.06 204.56 12.32Q204.54 12.58 204.50 12.92L204.50 12.92Z" transform="translate(0, 0)"></path></g></svg> <svg y="367.04000091552734" viewBox="3.309999942779541 12.859999656677246 323.6600036621094 38.529998779296875" x="125.67400213623046" width="323.6600036621094" height="38.529998779296875" style="overflow: visible;"><g fill="#000" style=""><path d="M3.31 13.29L8.69 13.29L8.69 42.96L3.31 42.96L3.31 13.29ZM8.34 25.03L21.07 25.03L21.07 29.24L8.34 29.24L8.34 25.03ZM20.60 13.29L25.97 13.29L25.97 42.96L20.60 42.96L20.60 13.29ZM32.08 21.84L37.28 21.84L37.28 36.12Q37.24 37.71 37.90 38.40Q38.57 39.09 40.08 39.09L40.08 39.09Q41.58 39.09 43.09 38.44Q44.59 37.80 46.74 36.51L46.74 36.51L47.26 39.60Q44.85 41.54 42.61 42.53Q40.38 43.52 37.97 43.52L37.97 43.52Q32.08 43.52 32.08 37.71L32.08 37.71L32.08 21.84ZM46.23 21.84L51.43 21.84L51.43 42.96L47.30 42.96L46.74 38.87L46.23 38.27L46.23 21.84ZM71.17 21.33L71.17 21.33Q77.06 21.33 77.06 27.13L77.06 27.13L77.06 42.96L71.85 42.96L71.85 28.72Q71.85 27.00 71.25 26.36Q70.65 25.71 69.23 25.71L69.23 25.71Q67.64 25.71 65.96 26.42Q64.29 27.13 61.92 28.47L61.92 28.47L61.71 25.33Q64.07 23.39 66.46 22.36Q68.84 21.33 71.17 21.33ZM57.28 21.84L61.53 21.84L62.05 25.97L62.48 26.57L62.48 42.96L57.28 42.96L57.28 21.84ZM91.72 21.33L91.72 21.33Q95.29 21.33 97.37 21.99Q99.46 22.66 100.36 24.14Q101.27 25.63 101.27 28.04L101.27 28.04Q101.27 30.36 100.36 31.84Q99.46 33.33 97.35 34.01Q95.25 34.70 91.68 34.70L91.68 34.70Q88.11 34.70 86.02 34.01Q83.94 33.33 83.01 31.86Q82.09 30.40 82.09 28.04L82.09 28.04Q82.09 25.63 83.01 24.14Q83.94 22.66 86.04 21.99Q88.15 21.33 91.72 21.33ZM91.68 24.72L91.68 24.72Q88.97 24.72 87.94 25.46Q86.90 26.19 86.90 28.04L86.90 28.04Q86.90 29.80 87.94 30.55Q88.97 31.30 91.68 31.30L91.68 31.30Q94.39 31.30 95.40 30.55Q96.41 29.80 96.41 28.04L96.41 28.04Q96.41 26.19 95.40 25.46Q94.39 24.72 91.68 24.72ZM96.36 21.84L103.72 21.84L103.42 24.25L97.91 24.85L96.36 21.84ZM85.53 33.41L85.53 33.41L88.19 33.80Q87.55 34.31 87.31 35.11Q87.08 35.91 87.44 36.61Q87.81 37.32 89.05 37.50L89.05 37.50L96.88 38.53Q100.06 38.91 101.35 40.40Q102.64 41.88 102.64 44.68L102.64 44.68Q102.64 47.30 101.61 48.76Q100.58 50.22 98.23 50.80Q95.89 51.39 91.93 51.39L91.93 51.39Q88.80 51.39 86.73 51.06Q84.67 50.74 83.44 49.99Q82.22 49.23 81.70 48.05Q81.18 46.87 81.18 45.11L81.18 45.11Q81.18 43.73 81.64 42.79Q82.09 41.84 83.12 41.09Q84.15 40.33 85.91 39.69L85.91 39.69L88.84 38.44L90.86 39.17L88.97 40.51Q87.98 41.24 87.35 41.82Q86.73 42.40 86.45 42.98Q86.17 43.56 86.17 44.46L86.17 44.46Q86.17 45.67 86.67 46.31Q87.16 46.96 88.41 47.19Q89.66 47.43 91.89 47.43L91.89 47.43Q94.17 47.43 95.42 47.19Q96.66 46.96 97.16 46.33Q97.65 45.71 97.65 44.55L97.65 44.55Q97.65 43.60 97.35 43.15Q97.05 42.70 96.28 42.44Q95.50 42.18 94.13 42.01L94.13 42.01L87.08 41.15Q85.57 40.98 84.69 40.27Q83.81 39.56 83.46 38.55Q83.12 37.54 83.27 36.53Q83.42 35.52 84.00 34.66Q84.58 33.80 85.53 33.41ZM116.66 21.33L116.66 21.33Q120.53 21.33 122.83 22.40Q125.13 23.48 126.14 25.93Q127.15 28.38 127.15 32.42L127.15 32.42Q127.15 36.46 126.14 38.89Q125.13 41.32 122.83 42.42Q120.53 43.52 116.66 43.52L116.66 43.52Q112.88 43.52 110.57 42.42Q108.27 41.32 107.24 38.89Q106.21 36.46 106.21 32.42L106.21 32.42Q106.21 28.38 107.24 25.93Q108.27 23.48 110.57 22.40Q112.88 21.33 116.66 21.33ZM116.66 25.28L116.66 25.28Q114.77 25.28 113.67 25.91Q112.57 26.53 112.10 28.08Q111.63 29.63 111.63 32.42L111.63 32.42Q111.63 35.22 112.10 36.77Q112.57 38.31 113.67 38.91Q114.77 39.52 116.66 39.52L116.66 39.52Q118.59 39.52 119.71 38.91Q120.83 38.31 121.28 36.77Q121.73 35.22 121.73 32.42L121.73 32.42Q121.73 29.63 121.28 28.08Q120.83 26.53 119.71 25.91Q118.59 25.28 116.66 25.28ZM146.41 21.84L151.92 21.84L144.65 41.71Q144.44 42.27 143.99 42.61Q143.53 42.96 142.89 42.96L142.89 42.96L138.33 42.96Q137.73 42.96 137.26 42.61Q136.78 42.27 136.57 41.71L136.57 41.71L129.30 21.84L134.85 21.84L139.28 35.69Q139.58 36.64 139.84 37.60Q140.09 38.57 140.31 39.47L140.31 39.47L140.87 39.47Q141.17 38.53 141.45 37.58Q141.73 36.64 141.99 35.69L141.99 35.69L146.41 21.84ZM164.48 21.33L164.48 21.33Q169.59 21.33 171.83 23.11Q174.06 24.90 174.11 28.38L174.11 28.38Q174.15 31.26 172.75 32.74Q171.36 34.23 168.13 34.23L168.13 34.23L156.09 34.23L156.09 31.00L166.71 31.00Q168.17 31.00 168.58 30.23Q168.99 29.45 168.99 28.34L168.99 28.34Q168.95 26.57 167.98 25.89Q167.01 25.20 164.69 25.20L164.69 25.20Q162.67 25.20 161.55 25.76Q160.43 26.32 159.98 27.78Q159.53 29.24 159.53 31.99L159.53 31.99Q159.53 34.92 160.09 36.51Q160.65 38.10 161.94 38.68Q163.23 39.26 165.38 39.26L165.38 39.26Q166.97 39.26 169.05 39.13Q171.14 39.00 173.08 38.79L173.08 38.79L173.59 42.10Q172.43 42.57 170.93 42.87Q169.42 43.17 167.81 43.32Q166.20 43.47 164.78 43.47L164.78 43.47Q160.91 43.47 158.56 42.33Q156.22 41.19 155.17 38.74Q154.11 36.29 154.11 32.42L154.11 32.42Q154.11 28.25 155.17 25.82Q156.22 23.39 158.52 22.36Q160.82 21.33 164.48 21.33ZM178.79 21.84L182.84 21.84L183.52 25.97L184.00 26.57L184.00 42.96L178.79 42.96L178.79 21.84ZM192.12 21.33L193.16 21.33L192.64 26.14L191.13 26.14Q189.46 26.14 187.74 26.70Q186.02 27.26 183.44 28.38L183.44 28.38L183.09 25.33Q185.33 23.43 187.65 22.38Q189.97 21.33 192.12 21.33L192.12 21.33ZM205.71 21.33L205.71 21.33Q206.79 21.33 208.08 21.41Q209.37 21.50 210.70 21.76Q212.03 22.02 213.11 22.49L213.11 22.49L212.51 25.76Q210.91 25.67 209.35 25.63Q207.78 25.59 206.62 25.59L206.62 25.59Q204.42 25.59 203.15 26.17Q201.88 26.75 201.33 28.23Q200.77 29.71 200.77 32.38L200.77 32.38Q200.77 35.05 201.33 36.53Q201.88 38.01 203.15 38.61Q204.42 39.22 206.62 39.22L206.62 39.22Q207.26 39.22 208.31 39.17Q209.37 39.13 210.59 39.04Q211.82 38.96 212.98 38.83L212.98 38.83L213.50 42.18Q211.82 42.87 209.75 43.17Q207.69 43.47 205.67 43.47L205.67 43.47Q201.88 43.47 199.61 42.40Q197.33 41.32 196.32 38.89Q195.31 36.46 195.31 32.38L195.31 32.38Q195.31 28.29 196.34 25.86Q197.37 23.43 199.65 22.38Q201.93 21.33 205.71 21.33ZM227.00 21.33L227.00 21.33Q230.87 21.33 233.17 22.40Q235.47 23.48 236.48 25.93Q237.49 28.38 237.49 32.42L237.49 32.42Q237.49 36.46 236.48 38.89Q235.47 41.32 233.17 42.42Q230.87 43.52 227.00 43.52L227.00 43.52Q223.21 43.52 220.91 42.42Q218.61 41.32 217.58 38.89Q216.55 36.46 216.55 32.42L216.55 32.42Q216.55 28.38 217.58 25.93Q218.61 23.48 220.91 22.40Q223.21 21.33 227.00 21.33ZM227.00 25.28L227.00 25.28Q225.11 25.28 224.01 25.91Q222.91 26.53 222.44 28.08Q221.97 29.63 221.97 32.42L221.97 32.42Q221.97 35.22 222.44 36.77Q222.91 38.31 224.01 38.91Q225.11 39.52 227.00 39.52L227.00 39.52Q228.93 39.52 230.05 38.91Q231.17 38.31 231.62 36.77Q232.07 35.22 232.07 32.42L232.07 32.42Q232.07 29.63 231.62 28.08Q231.17 26.53 230.05 25.91Q228.93 25.28 227.00 25.28ZM249.53 21.33L249.53 21.33Q251.68 21.33 253.74 21.91Q255.81 22.49 257.48 23.82L257.48 23.82L257.14 26.45Q255.46 25.97 254.13 25.63Q252.80 25.28 251.16 25.28L251.16 25.28Q249.62 25.28 248.69 25.82Q247.77 26.36 247.31 27.86Q246.86 29.37 246.86 32.25L246.86 32.25Q246.86 35.00 247.29 36.49Q247.72 37.97 248.65 38.55Q249.57 39.13 250.99 39.13L250.99 39.13Q252.15 39.13 253.06 38.85Q253.96 38.57 254.90 37.97Q255.85 37.37 257.10 36.51L257.10 36.51L257.53 39.43Q256.06 41.11 253.94 42.29Q251.81 43.47 249.01 43.47L249.01 43.47Q244.97 43.47 243.25 40.61Q241.53 37.75 241.53 32.29L241.53 32.29Q241.53 28.12 242.41 25.74Q243.29 23.35 245.08 22.34Q246.86 21.33 249.53 21.33ZM256.54 12.86L261.74 12.86L261.74 42.96L257.66 42.96L257.10 39.17L256.54 38.74L256.54 24.64L256.80 24.04Q256.62 22.79 256.58 21.52Q256.54 20.25 256.54 18.92L256.54 18.92L256.54 12.86ZM277.05 21.33L277.05 21.33Q282.17 21.33 284.40 23.11Q286.64 24.90 286.68 28.38L286.68 28.38Q286.72 31.26 285.33 32.74Q283.93 34.23 280.70 34.23L280.70 34.23L268.66 34.23L268.66 31.00L279.29 31.00Q280.75 31.00 281.16 30.23Q281.56 29.45 281.56 28.34L281.56 28.34Q281.52 26.57 280.55 25.89Q279.59 25.20 277.26 25.20L277.26 25.20Q275.24 25.20 274.13 25.76Q273.01 26.32 272.56 27.78Q272.10 29.24 272.10 31.99L272.10 31.99Q272.10 34.92 272.66 36.51Q273.22 38.10 274.51 38.68Q275.80 39.26 277.95 39.26L277.95 39.26Q279.54 39.26 281.63 39.13Q283.71 39.00 285.65 38.79L285.65 38.79L286.17 42.10Q285.00 42.57 283.50 42.87Q281.99 43.17 280.38 43.32Q278.77 43.47 277.35 43.47L277.35 43.47Q273.48 43.47 271.14 42.33Q268.79 41.19 267.74 38.74Q266.69 36.29 266.69 32.42L266.69 32.42Q266.69 28.25 267.74 25.82Q268.79 23.39 271.09 22.36Q273.39 21.33 277.05 21.33ZM291.37 21.84L295.41 21.84L296.10 25.97L296.57 26.57L296.57 42.96L291.37 42.96L291.37 21.84ZM304.70 21.33L305.73 21.33L305.21 26.14L303.71 26.14Q302.03 26.14 300.31 26.70Q298.59 27.26 296.01 28.38L296.01 28.38L295.67 25.33Q297.90 23.43 300.23 22.38Q302.55 21.33 304.70 21.33L304.70 21.33ZM316.87 21.33L316.87 21.33Q318.33 21.33 320.03 21.41Q321.73 21.50 323.36 21.65Q324.99 21.80 326.28 22.06L326.28 22.06L325.94 25.46Q323.88 25.41 321.83 25.35Q319.79 25.28 317.81 25.28L317.81 25.28Q316.05 25.28 315.04 25.37Q314.03 25.46 313.62 25.89Q313.21 26.32 313.21 27.35L313.21 27.35Q313.21 28.59 313.90 29.00Q314.59 29.41 316.14 29.80L316.14 29.80L321.90 31.13Q324.52 31.78 325.75 33.09Q326.97 34.40 326.97 37.11L326.97 37.11Q326.97 39.73 326.00 41.09Q325.04 42.44 322.95 42.94Q320.87 43.43 317.64 43.43L317.64 43.43Q316.39 43.43 313.94 43.32Q311.49 43.22 308.57 42.74L308.57 42.74L308.91 39.34Q309.77 39.34 310.95 39.39Q312.14 39.43 313.49 39.43Q314.85 39.43 316.26 39.43L316.26 39.43Q318.54 39.43 319.77 39.28Q321.00 39.13 321.47 38.64Q321.94 38.14 321.94 37.20L321.94 37.20Q321.94 35.99 321.15 35.58Q320.35 35.17 318.80 34.79L318.80 34.79L313.17 33.41Q311.23 32.89 310.16 32.10Q309.08 31.30 308.61 30.12Q308.14 28.94 308.14 27.22L308.14 27.22Q308.14 24.90 309.02 23.61Q309.90 22.32 311.81 21.80Q313.73 21.29 316.87 21.33Z" transform="translate(0, 0)"></path></g></svg></svg>